<svg xmlns:rdf="http://www.w3.org/1999/02/22-rdf-syntax-ns#" xmlns="http://www.w3.org/2000/svg" height="198mm" width="198mm" version="1.1" xmlns:cc="http://creativecommons.org/ns#" xmlns:dc="http://purl.org/dc/elements/1.1/" viewBox="0 0 700 700">
 <g transform="translate(-64.7 -113)">
  <rect height="700" width="700" y="113" x="64.7" fill="#225278"/>
  <g transform="matrix(.986 .167 -.167 .986 86.3 -41.9)">
   <path d="m366 209c2.48 5.14 4.36 8.92 10.6 21.4 5.03 10 5.34 10.6 7.06 13.6 0.869 1.48 2.28 4.06 3.13 5.74 0.852 1.68 2.37 4.41 3.37 6.07s2.1 3.49 2.45 4.08c3.96 6.68 4.82 7.98 5.23 7.91 0.264-0.0428 0.509 0.272 0.544 0.697 0.0356 0.425 1.31 2.45 2.82 4.51 7.23 9.79 13 15.2 20.3 18.9 1.86 0.945 3.46 1.7 3.57 1.69 0.106-0.0161 0.395-1.47 0.64-3.22 0.246-1.75 0.582-3.54 0.748-3.97 0.165-0.43 0.554-2.64 0.863-4.91s0.709-4.81 0.888-5.65c0.179-0.836 1.06-6.09 1.97-11.7 1.62-10.1 4.23-25.7 6.96-41.8 0.773-4.56 1.81-11 2.3-14.3 0.881-5.88 1.92-10.6 2.04-9.19 0.0336 0.385-0.168 2.07-0.45 3.74-0.281 1.67-1.02 6.92-1.65 11.7-2.42 18.3-3.87 29-4.31 31.9-0.255 1.66-0.707 5.03-1 7.5-0.296 2.47-0.888 6.86-1.31 9.75-0.427 2.89-1.31 9.47-1.97 14.6-0.655 5.15-1.4 10.8-1.67 12.6-0.262 1.79-0.331 3.5-0.154 3.81 0.685 1.2 4.34 0.861 6.19-0.571 2.13-1.65 6.89-2.59 9.12-1.8 1.11 0.39 2.41 0.146 4.75-0.89l3.22-1.43 3.11-8.87c1.71-4.88 3.93-11.2 4.92-14 0.995-2.84 1.97-5.53 2.18-5.96 0.202-0.436 0.865-2.36 1.47-4.27 1.04-3.28 3.82-11.1 4.56-12.8 0.185-0.433 1.19-3.23 2.23-6.22s2.84-7.95 4-11c1.16-3.08 2.09-5.86 2.07-6.2-0.0208-0.334 0.372-1.5 0.873-2.59 0.808-1.75-3.35 14.3-5.25 20.3-0.406 1.28-1.9 6.47-3.32 11.5-1.42 5.07-3 10.6-3.52 12.3-0.514 1.7-1.35 4.64-1.86 6.53-0.511 1.9-1.81 6.48-2.88 10.2-1.08 3.7-1.86 6.72-1.74 6.7 0.497-0.0787 7.85-6.09 12.9-10.6 5.3-4.68 9.06-8.3 14.9-14.3 3.23-3.35 15.8-17.9 16.1-18.7 0.122-0.284 1.64-2.21 3.37-4.28s3.36-4.07 3.62-4.44c0.262-0.372 2.31-3.13 4.54-6.12 5.2-6.96 6.87-9.35 15.1-21.6 3.71-5.55 6.76-9.96 6.77-9.79 0.0276 0.329-1.48 5.4-7.34 24.8-2.05 6.78-3.87 12.9-4.03 13.5-0.16 0.631-0.748 2.54-1.31 4.24-1.98 6.05-5.99 20.1-8.65 30.4-1.61 6.18-2.52 10.1-4.88 21-0.648 2.98-1.48 9.13-2.01 14.9-0.534 5.79-0.149 14.8 0.654 15.3 0.232 0.147 2.94-3.92 6.03-9.05 4.42-7.35 20.3-33.9 22.4-37.3 0.229-0.384 0.0734 0.271-0.347 1.46s-1.02 2.44-1.33 2.78c-0.31 0.342-1.02 1.68-1.58 2.97-0.561 1.29-2.71 5.57-4.77 9.51s-4.47 8.6-5.35 10.3c-0.878 1.75-2.02 3.93-2.53 4.86-0.514 0.92-2.56 4.9-4.56 8.85-1.99 3.95-4.12 8.15-4.74 9.34l-1.12 2.16 2.12 2.33c1.17 1.28 2.36 2.18 2.65 1.99 0.291-0.187 14.5-24.6 31.6-54.4 17.1-29.7 31.1-53.8 31.2-53.5 0.0404 0.485-0.864 2.24-6.13 11.9-0.732 1.34-4.77 8.93-8.96 16.9-4.2 7.94-8.67 16.3-9.95 18.6-1.27 2.29-3.24 5.94-4.38 8.09-1.14 2.16-4.62 8.78-7.75 14.7-3.12 5.94-6.23 11.7-6.9 12.9-1.24 2.14-8.37 15.5-12.2 22.8l-2.09 4 2.01 0.542c2.86 0.772 6.36 0.189 6.76-1.13 0.184-0.597 1.65-2.89 3.25-5.1 3.34-4.59 8.2-11.6 10.6-15.4 0.921-1.42 2.62-3.89 3.77-5.48 5.19-7.2 7.59-11.1 7.51-12.1-0.154-1.85 4.21-8.77 6.96-11l2.94-2.41-0.266-6.4c-0.313-7.51 0.547-11.5 3.49-16.3 3.83-6.21 11.5-8.24 17.5-4.63 4.81 2.9 7.97 7.54 9.93 14.6 0.906 3.24 1.18 3.64 2.26 3.3 3.89-1.23 7.14-1.44 8.78-0.572 2.67 1.41 5.03 4.19 7.01 8.28 1.56 3.21 1.84 4.47 2.37 10.5 0.456 5.27 0.422 7.55-0.146 9.74-1.03 3.98-3.29 7.58-5.51 8.79-1.64 0.896-2.26 2.07-4.84 9.18-4.68 12.9-5.21 14.5-7.58 23.7-1.23 4.77-2.4 9.26-2.61 9.99-0.669 2.38-1.7 9.9-2.1 15.4-0.501 6.82-0.097 11.6 1.48 17.3l1.26 4.6 3.16-1.01c1.74-0.554 4.43-1.66 5.97-2.46 1.54-0.802 4.2-1.97 5.9-2.61 1.7-0.632 4.82-1.93 6.94-2.88 2.11-0.95 6.16-2.64 8.99-3.76s6.71-2.79 8.62-3.72c1.91-0.929 3.61-1.54 3.78-1.35 0.309 0.339-1.18 1.22-9.69 5.74-4.48 2.38-7.01 3.76-15.3 8.32-2.24 1.24-5.33 2.89-6.87 3.66-1.54 0.776-4.14 2.22-5.76 3.22l-2.95 1.8 1.3 1.81c1.12 1.56 1.67 1.74 4.01 1.36 1.49-0.244 4.23-0.99 6.07-1.66 1.85-0.667 6.4-2.05 10.1-3.06 18.7-5.14 26.6-7.36 33.5-9.42 4.14-1.24 10.8-3.11 14.8-4.15 3.98-1.04 9.36-2.55 12-3.35 2.59-0.798 5.78-1.6 7.08-1.78 1.9-0.263 1.36 0.117-2.76 1.92-2.82 1.24-7.32 3.23-10 4.42s-6.95 3.02-9.5 4.07c-2.55 1.04-6.12 2.6-7.95 3.47-1.83 0.866-4.25 1.93-5.39 2.36-2.26 0.856-7.13 2.96-14.6 6.32-2.68 1.2-6.95 3.03-9.5 4.08-2.55 1.04-7.08 3.01-10.1 4.38l-5.46 2.48 2.05 1.29c5.46 3.44 18.5 9.31 28.8 13 3.47 1.24 7.13 2.61 8.13 3.06 0.997 0.442 2.06 0.765 2.37 0.716 0.307-0.0486 1.34 0.25 2.3 0.664 0.956 0.414 2.6 1.02 3.65 1.35 2.26 0.705 10.2 3.33 17.5 5.77 2.86 0.959 7.16 2.37 9.57 3.13 2.4 0.764 7.33 2.46 10.9 3.76 3.62 1.3 7.36 2.57 8.31 2.8 0.955 0.235 2.44 0.799 3.29 1.25 0.857 0.454 1.84 0.782 2.19 0.729 0.985-0.149 3.44 1.09 3.5 1.77 0.0281 0.334-1.66 0.88-3.75 1.21-2.09 0.333-7.42 1.68-11.8 3-4.42 1.32-10.5 3.1-13.5 3.95-14 4-26.3 9-36.8 15-4.57 2.63-7.76 4.74-9.13 6.06-0.51 0.489-1.92 1.76-3.13 2.83-3.56 3.13-5.91 6.8-4.17 6.53 0.342-0.0541 1.63 0.368 2.87 0.937 1.24 0.57 5.59 2.39 9.68 4.05s8.54 3.48 9.91 4.05c3.53 1.47 4.07 1.69 10.2 4.1 3.02 1.19 5.91 2.4 6.4 2.67 0.498 0.276 2.88 1.23 5.29 2.12l4.38 1.62 2.17-1.99c1.33-1.22 3.49-2.33 5.59-2.88 4.59-1.19 7.81 0.129 10.2 4.2 0.947 1.6 1.8 3.03 1.9 3.18 0.0959 0.15 0.548-0.289 1-0.978 0.456-0.688 2.58-2.8 4.73-4.69 3.77-3.33 4.08-3.47 9.48-4.34 4.82-0.779 5.92-0.723 8.13 0.406 4.11 2.11 6.93 5.63 8.48 10.6 0.309 0.992 0.68 1 2.57 0.0853 3.11-1.52 9.21-1.89 11.6-0.713 5.35 2.6 8.58 8.48 9.77 17.8 1.25 9.81-0.287 18.5-4.42 24.9-3.13 4.9-5.97 7.06-10.9 8.35-3.11 0.805-4.12 1.34-4.25 2.26-0.648 4.67-2.77 12.9-4.2 16.3-5.48 13-16.5 17-24.2 8.77-4.01-4.3-5.71-9.15-6.12-17.5-0.174-3.5-0.389-6.36-0.479-6.35-0.0899 0.0145-0.991 0.818-2 1.79-2.25 2.15-6.7 3.01-9.28 1.8-2.03-0.957-5.63-4.71-7-7.29-2.07-3.92-2.47-5.41-2.99-11-0.529-5.73-0.498-6.01 0.941-8.6l1.49-2.67-2.05-2.84c-1.94-2.69-3.83-7.34-4.49-11.1-0.238-1.34-0.902-1.9-3.04-2.58-4.38-1.39-7.81-2.31-13.6-3.65-2.98-0.691-8.6-2.11-12.5-3.14-3.89-1.04-9.39-2.45-12.2-3.14-2.84-0.688-5.74-1.41-6.46-1.61-1.24-0.338-1.28-0.232-0.8 2.11 0.821 4.01 6.76 16.4 10.3 21.3 0.256 0.363 1.99 2.83 3.85 5.48s3.95 5.48 4.64 6.28c0.695 0.798 1.92 2.32 2.71 3.38 4.09 5.46 14.2 17 26.1 29.9 7.29 7.91 13.2 14.5 13.1 14.6-0.197 0.343-8.77-2.83-9.39-3.47-0.304-0.318-0.884-0.526-1.29-0.462-0.404 0.064-1.52-0.239-2.48-0.672-2.84-1.29-11.8-4.33-16.5-5.58-2.39-0.643-5.21-1.48-6.27-1.86-1.06-0.379-3.38-1-5.17-1.39-1.79-0.385-4.83-1.06-6.77-1.5-4.71-1.06-7.25-1.43-16-2.32-6.29-0.641-8.91-0.522-17.6 0.797-9.65 1.46-10.5 1.7-14.8 4.24-5.83 3.43-10.1 6.92-11.1 9.19-0.476 1.01 3.54 7.69 12.9 21.5 0.99 1.46 2.75 4.15 3.92 5.98 1.16 1.83 4.04 6.17 6.4 9.63s5.22 7.8 6.37 9.63c2.11 3.37 6.91 10.4 8.32 12.3 0.42 0.539 1.59 2.34 2.59 3.99 1.01 1.66 2.1 3.34 2.42 3.75 0.326 0.403 1.01 1.41 1.52 2.25 0.508 0.832 1.53 2.33 2.27 3.32 0.741 0.995 1.37 2.14 1.41 2.55 0.0346 0.407 0.248 0.821 0.475 0.92 0.641 0.277 5.56 7.65 5.62 8.43 0.0317 0.382 0.283 0.769 0.558 0.86 0.275 0.0909 1.42 1.57 2.53 3.29 1.12 1.72 4.08 6.2 6.59 9.96 14.5 21.8 15.6 24 5.42 10.8-2.29-2.98-4.71-6.06-5.36-6.86-1.59-1.94-3.56-4.47-7.14-9.14-1.64-2.14-3.38-4.37-3.87-4.94-1.14-1.35-3.14-3.92-6.84-8.81-1.64-2.16-5.41-7.01-8.38-10.8-2.97-3.77-5.97-7.59-6.66-8.49-6.28-8.21-37.8-48.3-37.9-48.3-0.406 0.0645-2.21 6.83-2.96 11.1-1.44 8.18-1.55 14.5-0.477 27.8 1.24 15.3 2.69 23 8.99 47.6 1.56 6.09 1.56 6.11-0.328 3.59-0.902-1.2-1.91-2.51-2.24-2.91-16.4-20.1-31.1-35.3-43.1-44.5-2.33-1.79-4.34-3.24-4.46-3.22-0.121 0.0193-1.55-0.844-3.18-1.92-5.99-3.94-14.9-7.62-14.7-6.11 0.0365 0.439 0.674 2.55 1.42 4.7 0.742 2.14 2.49 7.52 3.88 11.9 6.31 20 8.57 26.7 9.14 26.8 3.04 0.658 6.16 2.12 8.34 3.92l2.61 2.15 1.56-2.05c3.83-5.05 10.9-7.06 15.9-4.5 3.14 1.62 7.22 5.77 9.05 9.21 4.57 8.58 4.14 18.3-1.08 24.3-1.4 1.63-3.16 3.29-3.91 3.68-1.12 0.585-1.33 1.12-1.17 3.03 0.675 8.12-3 16.9-8.09 19.3-3.44 1.65-7.06 1.25-9.89-1.08-2-1.64-1.95-1.72-2.26 3.42-0.0765 1.26-0.876 3.54-1.78 5.05-1.59 2.68-1.76 2.77-5.94 3.43-3.74 0.591-4.67 0.466-7.17-0.954-5.38-3.06-10-9.77-10.5-15.1-0.324-3.9 0.236-6.12 2.57-10.2 1.51-2.63 1.88-3.74 1.35-4.06-1.24-0.767-4.98-6.97-5.91-9.79-3.32-10.1 0.947-24.5 8.38-28.3 1.35-0.679 2.42-1.56 2.39-1.96-0.0551-0.663-3.93-12.6-5.75-17.7-0.41-1.15-1.67-4.91-2.81-8.36-5.86-17.8-6.55-19.5-8.28-19.7-2.14-0.276-11.3 1.04-13.3 1.9-1.71 0.761-1.73 0.507 1.01 11.1 0.65 2.52 2.27 8.87 3.59 14.1 1.32 5.24 2.88 11.1 3.46 13 0.58 1.93 1.31 4.78 1.63 6.35 0.319 1.56 1.07 4.36 1.67 6.2 0.598 1.85 0.976 3.55 0.84 3.79-0.136 0.236-0.924-1.72-1.75-4.36-0.827-2.63-1.77-5.4-2.1-6.16-0.33-0.755-2.43-7.03-4.67-13.9-4.17-12.9-8.92-27-9.17-27.4-0.507-0.679-10.5 9.63-13 13.3-5.05 7.67-11.4 21.3-14.7 31.3-2.41 7.44-6.58 22.8-7.7 28.3-0.542 2.69-1.16 5.46-1.37 6.16-151 61-196-301-85-500l-0.274-8.03 2.47 5.11zm172 114-5.12 8.59 3.63-0.576c3.96-0.628 21.5-7.33 21.4-8.19-0.007-0.0858-0.814-1.97-1.79-4.19-1.61-3.64-1.85-4.84-2.5-12.5l-0.725-8.49-4.89 8.39c-2.69 4.61-7.19 12.3-10 17zm87.8 173c-0.157 3.04 0.0553 3.37 2.72 4.23 2.08 0.67 11.3 3.67 18.3 5.93 9.83 3.19 17.2 5.52 21 6.69 2.25 0.679 4.79 1.59 5.63 2.03 1.6 0.824 2.54 0.397 2.42-1.1-0.0379-0.475 0.21-1.86 0.55-3.09 0.34-1.22 0.474-2.38 0.298-2.58-0.362-0.397-6.87-2.43-14.2-4.44-7.95-2.18-16.2-4.6-17.7-5.17-0.756-0.294-3.33-1.07-5.73-1.72-2.39-0.651-6.07-1.72-8.17-2.37-2.1-0.652-4.09-1.17-4.42-1.15-0.331 0.0214-0.665 1.25-0.741 2.72zm-46-277c-0.138 0.746-0.398 1.19-0.578 0.997-0.18-0.198-0.0676-0.807 0.25-1.36 0.459-0.792 0.526-0.719 0.328 0.359zm57.9 82.1c2.56 2.7 6.53 6.87 8.82 9.27l4.16 4.37 9.94-6.44c5.47-3.54 10-6.35 10.1-6.24 0.0973 0.114-1.44 6.41-3.41 14-1.97 7.58-3.49 14.2-3.38 14.6 0.249 1.06 3.43 5.94 10.2 15.6l5.09 7.31-1.98-0.195c-2.41-0.236-13.9-0.432-18-0.306-2.66 0.0824-3.02 0.273-3.67 1.93-0.393 1.01-2.11 5.37-3.81 9.67-1.7 4.31-3.73 9.5-4.51 11.6-1.33 3.49-1.45 3.62-1.94 2.14-0.538-1.62-3.26-13.9-5.1-23l-1.03-5.07-3.57-0.958c-1.96-0.527-6.92-1.83-11-2.9l-7.44-1.94 1.41-1.51c0.775-0.831 4.25-4.18 7.72-7.45s6.95-6.62 7.73-7.45l1.42-1.51-1.39-15.2c-0.765-8.38-1.31-15.2-1.22-15.2 0.0935-0.005 2.27 2.2 4.83 4.89zm-18.9 279c0.555 0.749 3.34 4.12 6.19 7.5 2.85 3.37 5.34 6.4 5.54 6.73 0.195 0.328 1.82-0.271 3.61-1.33 5.44-3.22 12.7-7.24 13.2-7.31 0.482-0.0763-0.13 2.38-2.76 11.1-3.2 10.6-3.51 12-2.9 12.9 0.322 0.504 2.87 4.7 5.65 9.33 5.03 8.36 5.06 8.42 3.6 8.65-0.809 0.128-3.27-0.0967-5.47-0.5s-5.08-0.788-6.4-0.855c-1.32-0.0669-2.9-0.211-3.51-0.32-0.89-0.16-1.79 1.36-4.66 7.85-6.08 13.7-5.67 13-6.31 11.3-0.412-1.12-3.71-20.1-3.91-22.5-0.0176-0.211-0.315-0.338-0.662-0.283-0.582 0.0922-7.12-2.06-14-4.6-3.4-1.26-3.36-1.34 3.01-6.46 2.31-1.86 5.37-4.41 6.79-5.66l2.58-2.28-0.609-11.9c-0.335-6.57-0.466-12.1-0.29-12.3 0.175-0.191 0.773 0.266 1.33 1.02z" fill="#eb7f00"/>
   <path d="m500 258c0.55 0.929-0.396 1.93-2.68 3.15-13.6 7.23-17.2 8.9-21.1 9.56-2.43 0.415-6.88 1.8-9.89 3.09-3 1.28-11 3.38-17.7 4.65l-12.2 2.31-16-3.75c-8.81-2.06-21.5-4.21-28.1-4.77l-12.1-1.02-4.28 5.63c-2.36 3.09-6.77 8.15-9.81 11.2-3.78 3.84-5.66 7.05-5.94 10.2-0.268 2.95-1.76 5.62-4.27 7.65-2.12 1.71-4.17 4.68-4.56 6.59-0.384 1.91-2.2 5.2-4.04 7.32-4.59 5.27-5.17 7.67-3.51 14.4 1.2 4.85 0.762 6.99-2.65 13l-4.08 7.25 3.43 7.01c2.46 5.03 4.82 8.04 8.36 10.7 8.84 6.6 8.48 10.8-1.67 19.7-3.18 2.8-9.17 8.57-13.3 12.8-6.46 6.65-7.38 8.25-6.55 11.4 0.531 2.01 1.5 7.14 2.14 11.4 0.645 4.26 1.87 10.8 2.72 14.5 0.947 4.15 0.798 10.9-0.384 17.5-1.06 5.9-2.2 14.7-2.53 19.6-0.672 9.88-3.65 28.2-5.92 36.4-1.77 6.41-0.73 14.2 2.93 21.9 5.55 11.7 12.9 23.8 18.6 30.6 5.12 6.13 6.27 8.39 8.62 16.8 2.55 9.11 3.1 10.1 9.12 16.1 3.53 3.5 9.37 8.87 13 11.9 3.62 3.07 7.8 7.53 9.29 9.91 1.54 2.44 7.37 7.89 13.4 12.5 5.89 4.51 12.7 10.3 15.2 12.9 6.69 7 13 18.4 14.6 26.3 1.18 5.88 2.27 7.99 7.37 14.2 8.45 10.2 14.7 24.1 13.4 29.8-2.23 9.94-6.09 15.8-13.3 20-5.48 3.22-7.49 5.33-10.1 10.6-3.1 6.32-7.48 10.5-18.6 18-9.77 6.52-19.2 8.85-32.8 8.1-6.74-0.372-9.04-0.138-12.5 1.27-3.05 1.25-5.68 1.68-9.62 1.57-4.52-0.126-7.3-1.25-16.8-6.79-16.3-9.5-16.8-9.7-19.7-7.79-1.33 0.869-4.02 1.85-5.99 2.19-2.96 0.506-3.75 0.201-4.62-1.78-0.574-1.32-0.608-3.52-0.0747-4.89 0.839-2.16 0.516-2.76-2.39-4.46-3.06-1.79-3.89-1.82-9.25-0.405-5.39 1.42-5.97 1.39-6.76-0.329-0.476-1.04-0.296-3.62 0.403-5.73 1.17-3.55 0.999-4.06-2.27-6.58-3.11-2.4-4.17-2.63-8.51-1.89-5.9 1.01-7.05-0.329-5.04-5.83 1.83-5.01-1.54-8.6-6.82-7.27-4.99 1.26-6.87-0.547-6.08-5.82 0.852-5.63-1.02-8.14-5.77-7.73-5.79 0.497-6.94-0.386-6.17-4.75 0.946-5.33-1.2-7.34-6.2-5.79-4.91 1.52-7.11-0.22-6.17-4.88 0.975-4.81-1.25-6.68-6.15-5.16-4.77 1.48-6.27 0.611-6.73-3.93-0.0131-0.124-0.033-0.22-0.044-0.349 0.00006-0.001-0.001-0.003-0.001-0.004-0.398-4.68-3.04-6.27-5.14-3.1-0.923 1.39-0.613 3.04 0.962 5.15 0.0233 0.0323 0.0389 0.0552 0.063 0.0865 0.0727 0.0977 0.123 0.178 0.19 0.27 1.8 2.47 1.59 2.96-1.37 4.29-3.33 1.5-3.34 1.68-0.199 6.24l3.23 4.7-3.96 0.203c-3.21 0.165-3.67 0.441-2.41 1.45 0.858 0.688 2.54 2.52 3.73 4.07 2.14 2.78 2.12 2.81-2.57 3.03-5.53 0.255-5.47 1.28 0.399 6.3 2 1.71 3.97 3.8 4.36 4.63 0.824 1.74-3.28 2.77-6.55 1.65-4.27-1.46-3.56 0.962 1.17 3.99 2.66 1.7 5.17 3.83 5.58 4.73 0.629 1.38-0.0604 1.69-4.43 1.99-6.74 0.462-7.1 1.62-1.24 4.06 2.61 1.09 5.15 2.84 5.63 3.89 0.773 1.68 0.249 1.98-4.26 2.41-5.88 0.566-6.12 1.9-0.663 3.56 1.96 0.596 3.88 1.78 4.27 2.62 0.748 1.63-3.29 3.81-6.14 3.31-4.03-0.708 0.639 3.81 5.86 5.67 7.39 2.63 7.48 5.04 0.213 5.74-4.03 0.389-5.02 0.844-4.98 2.29 0.052 1.85 5.02 5.7 8.04 6.23 2.55 0.448 3.5 3.6 1.38 4.56-1.03 0.466-4.57 0.376-7.86-0.203l-5.99-1.05 3.79 2.92c2.08 1.61 3.7 3.49 3.59 4.17-0.29 1.89-4.57 2.24-9.21 0.766-2.28-0.724-5.94-1.13-8.15-0.905-2.21 0.226-5.1-0.109-6.43-0.745-2.32-1.11-3.57-2.45-14.3-15.2-2.63-3.15-4.97-6-5.19-6.33-0.221-0.33-1.39-5.18-2.61-10.8-1.74-8-4.01-13.6-10.6-26.3l-3.31-6.33-0.137-0.261-2.47-4.72-2.52-4.81 0.462-4.74 0.347-3.54c0.493-5.03 0.193-8.67-1.23-13.4-0.365-1.22-0.783-2.48-1.3-3.89-1.84-4.97-3.09-9.58-2.78-10.3 0.317-0.67-1.67-6.31-4.42-12.5-4.33-9.82-4.88-12.2-4.22-18.5 0.008-0.0757 0.01-0.137 0.0184-0.214 0.76-7.09 0.526-7.91-5.18-18.3-4.79-8.71-7.57-12.3-14.1-18.4-1.57-1.45-2.81-2.64-3.88-3.71-3.87-3.89-4.99-6.03-6.8-11.3-1.42-4.13-2.57-10.7-2.54-14.5 0.0279-4.71-1.22-10-3.79-16.2-0.845-2.02-1.48-3.59-1.96-4.98-1.59-4.61-1.27-6.92 0.396-14.4 0.524-2.36 1.19-4.96 1.87-7.43 0.944-3.42 1.92-6.59 2.64-8.37 0.457-1.13 0.782-2.16 0.999-3.13 0.537-2.39 0.358-4.36-0.543-6.32-0.478-1.04-0.895-2.52-1.19-4.07-0.316-1.64-0.498-3.35-0.462-4.75 0.12-4.65-0.178-5.2-5.24-9.79-10.7-9.74-19.5-24.9-18.6-32.2 0.282-2.3-0.329-5.93-1.36-8.06-2.58-5.36-2.45-10.6 0.293-11.6 5.47-1.94 24.1-4.18 28.2-3.4l4.2 0.813 2.14-6.59c3.63-11.2 6.96-16.6 14.7-24 6.5-6.18 7.7-8.17 9.4-15.6 4.1-17.8 11.2-25 48.3-48.5 6.25-3.96 8.82-6.41 10.1-9.58 0.915-2.34 4.23-7.04 7.37-10.4 3.39-3.69 7.28-10.2 9.6-16 4.64-11.7 7.09-13.7 24.8-20.7 7.05-2.79 16.2-6.87 20.4-9.07 4.15-2.2 8.51-4.17 9.68-4.37 1.17-0.209 4.34-1.98 7.06-3.93 2.71-1.95 9.31-5.63 14.7-8.16 19.1-9.06 25.4-12.7 31.6-18.5 3.47-3.21 6.26-6.96 6.22-8.33-0.0441-1.38-4.1-12.3-9.02-24.3-7.93-19.4-9.05-23.1-9.92-33.4-2.14-25.1-0.747-29.5 12.8-40.6 9.19-7.52 27.4-18.2 30.1-17.7 2.79 0.489 3.86 3.92 2.94 9.38-0.454 2.69-0.335 5.95 0.265 7.26s0.504 3.39-0.215 4.64c-1.02 1.76-0.786 2.56 1.03 3.57 1.79 0.996 2.18 2.09 1.66 4.66-0.41 2.02 0.0747 3.98 1.22 4.9 1.04 0.846 3.21 4.29 4.81 7.65 3.19 6.69 8.94 12.8 17.1 18.3 2.9 1.93 5.71 4.45 6.24 5.6 0.528 1.15 2.56 3.33 4.52 4.84 4.19 3.23 7.12 9.09 8.2 16.4 0.679 4.58 1.2 5.43 3.99 6.5 1.96 0.751 5.1 0.912 8.04 0.409 8.59-1.46 15.5 1.16 31.3 11.8 7.82 5.28 14.7 10.7 15.4 12.1 0.838 1.82 1.83 2.37 3.71 2.05 1.41-0.241 5.19 0.841 8.39 2.41 7.52 3.68 9.29 4.24 21.1 6.74 5.98 1.26 9.16 2.34 9.87 3.53z" fill="#aceff2"/>
  </g>
 </g>
</svg>
